<?xml version="1.0" encoding="utf-8"?>
<!-- Generator: Adobe Illustrator 16.0.0, SVG Export Plug-In . SVG Version: 6.00 Build 0)  -->
<!DOCTYPE svg PUBLIC "-//W3C//DTD SVG 1.1//EN" "http://www.w3.org/Graphics/SVG/1.1/DTD/svg11.dtd">
<svg version="1.1" id="Layer_1" xmlns="http://www.w3.org/2000/svg" xmlns:xlink="http://www.w3.org/1999/xlink" x="0px" y="0px"
	 width="612px" height="792px" viewBox="0 0 612 792" enable-background="new 0 0 612 792" xml:space="preserve">
<g>
	<path fill-rule="evenodd" clip-rule="evenodd" fill="#FEFEFE" d="M274.017,208c20.333,0,40.667,0.052,60.999-0.066
		c2.502-0.014,3.064,0.567,3.063,3.066c-0.071,124-0.071,248,0,372c0.001,2.499-0.562,3.082-3.063,3.066
		c-18.998-0.121-38-0.178-56.998,0.036c-3.432,0.038-4.1-0.679-4.096-4.103C274.035,457.333,274.017,332.667,274.017,208z"/>
</g>
<g>
	<path fill="#3B8BEB" d="M291.639,231.256L306,239.402l14.361-8.146l4.65,2.482l7.248-4.267L306,214.811l-26.26,14.661l7.249,4.267
		L291.639,231.256z M306,223.19l6.564,3.916L306,230.947l-6.565-3.841L306,223.19z"/>
	<polygon fill="#3B8BEB" points="284.937,237.462 277.551,233.428 277.551,260.347 284.937,256.236 	"/>
	<polygon fill="#3B8BEB" points="327.064,237.462 327.064,256.236 334.449,260.347 334.449,233.428 	"/>
	<polygon fill="#3B8BEB" points="318.24,263.76 318.24,243.746 310.514,247.935 310.514,267.872 306,270.509 301.486,267.872 
		301.486,247.935 293.759,243.746 293.759,263.76 287.057,259.959 279.74,264.149 306,278.81 332.26,264.149 324.941,259.959 	"/>
</g>
</svg>
