<?xml version="1.0" encoding="utf-8"?>
<!-- Generator: Adobe Illustrator 16.0.0, SVG Export Plug-In . SVG Version: 6.00 Build 0)  -->
<!DOCTYPE svg PUBLIC "-//W3C//DTD SVG 1.1//EN" "http://www.w3.org/Graphics/SVG/1.1/DTD/svg11.dtd">
<svg version="1.1" id="Layer_1" xmlns="http://www.w3.org/2000/svg" xmlns:xlink="http://www.w3.org/1999/xlink" x="0px" y="0px"
	 width="612px" height="792px" viewBox="0 0 612 792" enable-background="new 0 0 612 792" xml:space="preserve">
<g>
	<path fill-rule="evenodd" clip-rule="evenodd" fill="#FEFEFE" d="M306,529.959c-98.666,0-197.333-0.022-295.999,0.096
		c-3.423,0.004-4.109-0.669-4.098-4.096c0.145-47.499,0.133-95,0.015-142.499c-0.008-2.981,0.599-3.583,3.583-3.582
		c197.667,0.09,395.334,0.09,593,0c2.979-0.001,3.592,0.595,3.584,3.58c-0.119,47.5-0.131,95.001,0.014,142.501
		c0.012,3.425-0.674,4.1-4.098,4.096C503.334,529.937,404.668,529.959,306,529.959z"/>
</g>
<g>
	<path fill="#3B8BEB" d="M70.673,424.68l27.455,15.781l27.456-15.781l8.891,4.811l13.858-8.269l-50.205-28.406l-50.203,28.406
		l13.858,8.269L70.673,424.68z M98.128,409.05l12.552,7.587l-12.552,7.442l-12.551-7.442L98.128,409.05z"/>
	<polygon fill="#3B8BEB" points="57.861,436.702 43.741,428.889 43.741,481.043 57.861,473.076 	"/>
	<polygon fill="#3B8BEB" points="138.396,436.702 138.396,473.076 152.516,481.043 152.516,428.889 	"/>
	<polygon fill="#3B8BEB" points="121.53,487.656 121.53,448.877 106.756,456.995 106.756,495.621 98.128,500.732 89.5,495.621 
		89.5,456.995 74.726,448.877 74.726,487.656 61.914,480.292 47.925,488.408 98.128,516.815 148.333,488.408 134.343,480.292 	"/>
</g>
<text transform="matrix(0.8467 0 0 1 174.5391 482.8467)"><tspan x="0" y="0" fill="#3B8BEB" font-family="'ViperSquadronSolid'" font-size="69.9735">m</tspan><tspan x="55.348" y="0" fill="#3B8BEB" font-family="'ViperSquadronSolid'" font-size="69.9735">a</tspan><tspan x="110.767" y="0" fill="#3B8BEB" font-family="'ViperSquadronSolid'" font-size="69.9735">n</tspan><tspan x="158.978" y="0" fill="#3B8BEB" font-family="'ViperSquadronSolid'" font-size="69.9735">o</tspan></text>
</svg>
