<?xml version="1.0" encoding="utf-8"?>
<!-- Generator: Adobe Illustrator 16.0.0, SVG Export Plug-In . SVG Version: 6.00 Build 0)  -->
<!DOCTYPE svg PUBLIC "-//W3C//DTD SVG 1.1//EN" "http://www.w3.org/Graphics/SVG/1.1/DTD/svg11.dtd">
<svg version="1.1" id="Layer_1" xmlns="http://www.w3.org/2000/svg" xmlns:xlink="http://www.w3.org/1999/xlink" x="0px" y="0px"
	 width="612px" height="792px" viewBox="0 0 612 792" enable-background="new 0 0 612 792" xml:space="preserve">
<g>
	<path fill-rule="evenodd" clip-rule="evenodd" fill="#132232" d="M-92.84,397.063c0-130.562,0.055-261.122-0.165-391.682
		c-0.011-6.454,0.765-8.395,7.978-8.387c261.484,0.252,522.969,0.24,784.452,0.043c6.414-0.006,7.573,1.655,7.569,7.73
		c-0.166,261.454-0.162,522.909-0.021,784.363c0.004,5.806-0.744,7.869-7.435,7.863c-261.817-0.221-523.635-0.217-785.453-0.01
		c-6.154,0.004-7.083-1.474-7.074-7.24C-92.796,658.85-92.84,527.956-92.84,397.063z"/>
	<path fill-rule="evenodd" clip-rule="evenodd" fill="#132232" d="M123.306,602.376c-0.178,20.637-14.216,35.002-34.037,34.83
		c-19.592-0.171-32.696-14.688-32.496-36.001c0.193-20.51,13.599-34.368,33.162-34.282
		C109.681,567.011,123.484,581.676,123.306,602.376z"/>
	<path fill-rule="evenodd" clip-rule="evenodd" fill="#162535" d="M521.468,593.928c-8.631-0.002-17.265-0.123-25.892,0.049
		c-4.278,0.086-4.933-1.432-3.88-5.381c3.313-12.413,15.064-21.599,28.749-22.02c15.355-0.475,27.763,7.504,31.968,20.284
		c1.644,4.994,0.92,7.393-5.055,7.157C538.74,593.676,530.1,593.93,521.468,593.928z"/>
</g>
<g>
	<path fill="#3B8BEB" d="M177.813,175.549l129.181,65.132l129.183-65.132l41.831,19.85l65.204-34.114L306.994,44.048L70.777,161.284
		l65.205,34.114L177.813,175.549z M306.994,111.046l59.056,31.318l-59.056,30.705l-59.054-30.705L306.994,111.046z"/>
	<polygon fill="#3B8BEB" points="117.53,225.174 51.092,192.919 51.092,408.162 117.53,375.284 	"/>
	<polygon fill="#3B8BEB" points="496.46,225.174 496.46,375.284 562.896,408.162 562.896,192.919 	"/>
	<polygon fill="#3B8BEB" points="417.105,435.453 417.105,275.417 347.594,308.916 347.594,468.328 306.994,489.419 
		266.395,468.328 266.395,308.916 196.883,275.417 196.883,435.453 136.598,405.059 70.778,438.558 306.994,555.792 
		543.212,438.558 477.39,405.059 	"/>
</g>
<text transform="matrix(0.8915 0 0 1 56.77 725.9082)"><tspan x="0" y="0" fill="#3B8BEB" font-family="'ViperSquadronSolid'" font-size="193.1843">m</tspan><tspan x="152.808" y="0" fill="#3B8BEB" font-family="'ViperSquadronSolid'" font-size="193.1843">a</tspan><tspan x="305.809" y="0" fill="#3B8BEB" font-family="'ViperSquadronSolid'" font-size="193.1843">n</tspan><tspan x="438.909" y="0" fill="#3B8BEB" font-family="'ViperSquadronSolid'" font-size="193.1843">o</tspan></text>
</svg>
