<?xml version="1.0" encoding="utf-8"?>
<!-- Generator: Adobe Illustrator 16.0.0, SVG Export Plug-In . SVG Version: 6.00 Build 0)  -->
<!DOCTYPE svg PUBLIC "-//W3C//DTD SVG 1.1//EN" "http://www.w3.org/Graphics/SVG/1.1/DTD/svg11.dtd">
<svg version="1.1" id="Layer_1" xmlns="http://www.w3.org/2000/svg" xmlns:xlink="http://www.w3.org/1999/xlink" x="0px" y="0px"
	 width="612px" height="792px" viewBox="0 0 612 792" enable-background="new 0 0 612 792" xml:space="preserve">
<g>
	<path fill-rule="evenodd" clip-rule="evenodd" fill="#132232" d="M107,397.028c0-65.313,0.028-130.626-0.083-195.938
		c-0.005-3.229,0.383-4.199,3.991-4.195c130.792,0.126,261.585,0.12,392.377,0.021c3.208-0.003,3.788,0.828,3.786,3.867
		c-0.083,130.792-0.081,261.585-0.011,392.377c0.002,2.904-0.372,3.937-3.719,3.934c-130.959-0.11-261.918-0.108-392.877-0.005
		c-3.078,0.002-3.543-0.737-3.539-3.622C107.022,527.987,107,462.508,107,397.028z"/>
	<path fill-rule="evenodd" clip-rule="evenodd" fill="#132232" d="M215.115,499.736c-0.089,10.323-7.111,17.51-17.025,17.424
		c-9.8-0.086-16.354-7.348-16.254-18.01c0.097-10.26,6.802-17.192,16.587-17.149C208.3,482.045,215.204,489.381,215.115,499.736z"/>
	<path fill-rule="evenodd" clip-rule="evenodd" fill="#162535" d="M414.272,495.51c-4.317-0.001-8.636-0.062-12.951,0.024
		c-2.14,0.043-2.467-0.716-1.94-2.691c1.657-6.21,7.535-10.805,14.38-11.016c7.681-0.237,13.887,3.754,15.99,10.147
		c0.822,2.498,0.46,3.698-2.528,3.58C422.912,495.384,418.59,495.511,414.272,495.51z"/>
</g>
<g>
	<path fill="#3B8BEB" d="M242.379,286.216l64.615,32.582l64.616-32.582l20.924,9.93l32.614-17.065l-118.154-58.647L188.84,279.081
		l32.615,17.065L242.379,286.216z M306.994,253.949l29.539,15.667l-29.539,15.36l-29.538-15.36L306.994,253.949z"/>
	<polygon fill="#3B8BEB" points="212.226,311.042 178.994,294.906 178.994,402.581 212.226,386.134 	"/>
	<polygon fill="#3B8BEB" points="401.764,311.042 401.764,386.134 434.994,402.581 434.994,294.906 	"/>
	<polygon fill="#3B8BEB" points="362.071,416.233 362.071,336.175 327.302,352.933 327.302,432.679 306.994,443.229 
		286.687,432.679 286.687,352.933 251.917,336.175 251.917,416.233 221.763,401.028 188.841,417.786 306.994,476.433 
		425.148,417.786 392.225,401.028 	"/>
</g>
<text transform="matrix(0.8914 0 0 1 181.834 561.5332)"><tspan x="0" y="0" fill="#3B8BEB" font-family="'ViperSquadronSolid'" font-size="96.6403">m</tspan><tspan x="76.442" y="0" fill="#3B8BEB" font-family="'ViperSquadronSolid'" font-size="96.6403">a</tspan><tspan x="152.98" y="0" fill="#3B8BEB" font-family="'ViperSquadronSolid'" font-size="96.6403">n</tspan><tspan x="219.564" y="0" fill="#3B8BEB" font-family="'ViperSquadronSolid'" font-size="96.6403">o</tspan></text>
</svg>
