<?xml version="1.0" encoding="utf-8"?>
<!-- Generator: Adobe Illustrator 16.0.0, SVG Export Plug-In . SVG Version: 6.00 Build 0)  -->
<!DOCTYPE svg PUBLIC "-//W3C//DTD SVG 1.1//EN" "http://www.w3.org/Graphics/SVG/1.1/DTD/svg11.dtd">
<svg version="1.1" id="Layer_1" xmlns="http://www.w3.org/2000/svg" xmlns:xlink="http://www.w3.org/1999/xlink" x="0px" y="0px"
	 width="595.28px" height="841.89px" viewBox="0 0 595.28 841.89" enable-background="new 0 0 595.28 841.89" xml:space="preserve">
<g>
	<path fill-rule="evenodd" clip-rule="evenodd" fill="#FEFEFE" d="M352.05,484.546"/>
	<path fill-rule="evenodd" clip-rule="evenodd" fill="#F5F5F5" d="M367.674,473.291"/>
	<path fill-rule="evenodd" clip-rule="evenodd" fill="#F5F5F5" d="M360.678,479.291"/>
	<path fill-rule="evenodd" clip-rule="evenodd" fill="#3B8AEA" d="M180.807,451.101c-8.97-13.467-16.115-27.734-19.171-43.791
		c-2.857-6.039-2.129-12.614-2.772-18.973c-0.952-9.407-0.213-18.754,1.528-28.033c6.762-36.942,25.938-65.458,58.045-85.059
		c11.267-6.878,23.428-11.762,36.318-14.744c10.378-1.406,20.73-2.837,31.274-2.317c36.474,1.797,66.026,17.042,89.47,44.934
		c6.818,8.111,11.869,17.186,17.159,26.197c3.804,8.479,7.512,17.033,9.397,26.159c3.753,18.16,3.728,36.297-1.279,54.281
		c-3.39,11.853-7.717,23.357-14.267,33.838c-16.026,25.645-37.87,44.105-66.874,53.715c-15.84,5.248-32.066,7.131-48.603,5.883
		c-14.946-1.129-29.226-5.184-42.853-11.453c-1.5-0.691-3.049-1.355-4.182-2.643C206.355,480.126,191.816,467.621,180.807,451.101z"
		/>
	<path fill-rule="evenodd" clip-rule="evenodd" fill="#192534" d="M388.588,417.278c-6.89,19.702-18.334,36.001-34.129,49.896
		c-40.213,35.375-99.43,34.236-138.42,6.928c-21.235-14.873-35.792-34.705-43.855-58.879c-5.314-15.934-6.757-32.716-4.498-49.72
		c2.839-21.374,10.926-40.656,24.367-57.063c17.088-20.858,38.991-34.992,65.984-40.053c34.634-6.494,66.508,0.214,93.923,22.484
		c27.338,22.208,41.596,51.506,43.04,87.019c0.428,10.519-1.697,20.403-4.191,30.373c-1.061,1.353-2.654,1.187-4.092,1.369
		c-2.045,0.261-2.65,1.676-3.033,3.396c-0.576,2.592,1.594,1.921,2.786,2.354C387.459,415.74,388.234,416.251,388.588,417.278z"/>
	<path fill-rule="evenodd" clip-rule="evenodd" fill="#172231" d="M388.588,417.278c-2.064-1.401-4.484-0.821-6.77-1.05
		c1.893-7.885,1.893-7.885,8.99-7.965C391.232,411.555,390.123,414.469,388.588,417.278z"/>
	<path fill-rule="evenodd" clip-rule="evenodd" fill="#3B8AEA" d="M252.826,416.592c0-14.613,0.078-28.104-0.054-41.592
		c-0.034-3.451,0.603-4.039,3.796-2.295c13.216,7.211,13.26,7.13,13.26,22.155c0,9.164,0.324,18.345-0.115,27.488
		c-0.283,5.862,4.786,6.054,7.625,8.623c2.379,2.153,4.145-0.015,6.216-0.893c5.005-2.126,6.341-5.648,6.132-10.996
		c-0.453-11.647-0.051-23.324-0.205-34.986c-0.037-2.711,0.806-4.296,3.187-5.521c3.548-1.825,7.009-3.843,10.383-5.977
		c2.931-1.853,3.565-0.922,3.54,2.175c-0.101,12.497-0.045,24.994-0.033,37.492c0.001,1.133,0.105,2.267,0.197,4.113
		c3.949-2.313,7.57-4.248,10.982-6.501c2.074-1.369,3.697-1.543,5.846-0.108c4.145,2.768,8.481,5.245,13.299,8.183
		c-7.501,4.477-14.595,8.728-21.707,12.947c-10.595,6.287-21.214,12.529-31.793,18.84c-2.063,1.23-3.78,2.213-6.357,0.664
		c-17.549-10.549-35.199-20.926-52.812-31.368c-0.423-0.251-0.784-0.604-1.516-1.175c4.81-2.947,9.356-5.61,13.76-8.492
		c1.935-1.266,3.329-0.619,4.976,0.41C244.922,411.96,248.49,414.012,252.826,416.592z"/>
	<path fill-rule="evenodd" clip-rule="evenodd" fill="#3B8AEA" d="M336.898,338.158c-5.31,3.341-9.912,6.253-14.531,9.137
		c-2.716,1.695-4.475-0.722-6.151-1.891c-3.772-2.628-6.833-2.442-10.69,0.138c-7.318,4.893-15.109,9.075-22.547,13.799
		c-2.48,1.576-4.285,1.434-6.682-0.068c-7.75-4.855-15.754-9.312-23.424-14.286c-3.063-1.986-5.592-2.536-8.443-0.151
		c-4.002,3.348-7.729,3.236-11.813-0.181c-2.87-2.401-6.325-4.103-10.112-6.49c13.195-7.844,25.713-15.292,38.237-22.729
		c5.433-3.227,10.913-6.373,16.299-9.674c1.724-1.057,3.105-1.339,4.983-0.215C299.996,316.296,318.021,326.958,336.898,338.158z"/>
	<path fill-rule="evenodd" clip-rule="evenodd" fill="#3B8AE9" d="M218.066,347.131c5.211,3.021,9.906,5.754,14.615,8.464
		c1.318,0.759,1.688,1.889,1.685,3.343c-0.032,12.831-0.021,25.662-0.032,38.493c-0.002,1.197-0.178,2.353-1.334,3.043
		c-4.801,2.867-9.606,5.725-14.934,8.896C218.066,388.307,218.066,368.112,218.066,347.131z"/>
	<path fill-rule="evenodd" clip-rule="evenodd" fill="#3B8AE9" d="M341.123,409.231c-5.063-2.989-9.734-5.771-14.432-8.512
		c-1.775-1.036-1.668-2.721-1.668-4.39c-0.004-12.165,0.041-24.329-0.043-36.494c-0.016-2.239,0.578-3.719,2.645-4.833
		c4.381-2.362,8.64-4.95,13.498-7.765C341.123,367.938,341.123,388.109,341.123,409.231z"/>
	<path fill-rule="evenodd" clip-rule="evenodd" fill="#192635" d="M265.923,332.761c1.189-0.808,1.847-1.281,2.532-1.713
		c12.37-7.81,12.371-7.808,24.736,1.859c-3.99,2.507-7.914,4.875-11.723,7.415c-1.574,1.05-2.756,0.521-4.063-0.31
		C273.776,337.708,270.137,335.42,265.923,332.761z"/>
</g>
</svg>
