<?xml version="1.0" encoding="utf-8"?>
<!-- Generator: Adobe Illustrator 16.0.0, SVG Export Plug-In . SVG Version: 6.00 Build 0)  -->
<!DOCTYPE svg PUBLIC "-//W3C//DTD SVG 1.1//EN" "http://www.w3.org/Graphics/SVG/1.1/DTD/svg11.dtd">
<svg version="1.1" id="Layer_1" xmlns="http://www.w3.org/2000/svg" xmlns:xlink="http://www.w3.org/1999/xlink" x="0px" y="0px"
	 width="612px" height="792px" viewBox="0 0 612 792" enable-background="new 0 0 612 792" xml:space="preserve">
<path opacity="0.4" fill="#3B8BEB" d="M241.339,334.027l64.363,32.454l64.364-32.454l20.842,9.891l32.486-16.999L305.702,268.5
	L188.01,326.918l32.488,16.999L241.339,334.027z M305.702,301.885l29.424,15.605l-29.424,15.3l-29.423-15.3L305.702,301.885z"/>
<polygon opacity="0.4" fill="#3B8BEB" points="211.304,358.754 178.202,342.682 178.202,449.936 211.304,433.554 "/>
<polygon opacity="0.4" fill="#3B8BEB" points="400.102,358.754 400.102,433.554 433.202,449.936 433.202,342.682 "/>
<polygon opacity="0.4" fill="#3B8BEB" points="360.564,463.535 360.564,383.791 325.931,400.482 325.931,479.916 305.702,490.426 
	285.474,479.916 285.474,400.482 250.841,383.791 250.841,463.535 220.804,448.391 188.01,465.082 305.702,523.5 423.395,465.082 
	390.6,448.391 "/>
</svg>
