<?xml version="1.0" encoding="utf-8"?>
<!-- Generator: Adobe Illustrator 16.0.0, SVG Export Plug-In . SVG Version: 6.00 Build 0)  -->
<!DOCTYPE svg PUBLIC "-//W3C//DTD SVG 1.1//EN" "http://www.w3.org/Graphics/SVG/1.1/DTD/svg11.dtd">
<svg version="1.1" id="Layer_1" xmlns="http://www.w3.org/2000/svg" xmlns:xlink="http://www.w3.org/1999/xlink" x="0px" y="0px"
	 width="612px" height="792px" viewBox="0 0 612 792" enable-background="new 0 0 612 792" xml:space="preserve">
<g>
	<path fill-rule="evenodd" clip-rule="evenodd" fill="#FEFEFE" d="M375.069,384.453c-2.704-0.033-2.262-2.245-2.704-3.674
		c-7.507-24.349-24.304-40.071-50.455-45.518c-26.011-5.416-50.983,3.913-67.024,24.739c-1.294,1.68-2.644,3.671-0.409,5.37
		c2.407,1.831,3.988-0.196,5.24-1.8c8.125-10.406,18.625-17.579,31.801-21.348c25.264-7.228,54.809,3.183,67.796,24.922
		c20.974,35.096,0.847,76.833-41.266,83.784c-22.271,3.682-41.276-3.582-56.028-20.069c-1.766-1.977-3.2-6.328-6.768-3.88
		c-3.99,2.745,0.153,5.368,1.966,7.483c32.129,37.454,92.081,28.435,111.986-14.921c1.492-3.245,2.919-6.527,3.515-10.08
		c0.202-1.195,0.188-2.883,2.35-2.717"/>
	<path fill-rule="evenodd" clip-rule="evenodd" fill="#65476D" d="M375.069,406.745c-2.144,7.911-4.915,15.546-9.683,22.493
		c-11.229,16.368-26.848,26.263-47.382,29.198c-23.029,3.29-42.159-3.975-58.354-19.102c-2.5-2.337-4.715-4.968-6.879-7.597
		c-1.958-2.38-1.298-4.734,1.095-6.404c2.414-1.682,4.408-1.497,6.424,1.229c8.922,12.067,21.097,19.679,36.428,22.75
		c14.631,2.932,28.579,0.701,41.195-6.411c19.047-10.735,28.73-27.227,28.381-48.006c-0.378-22.22-14.351-42.677-38.177-50.248
		c-20.934-6.653-39.87-3.596-57.152,9.511c-4.062,3.08-6.899,6.933-10.156,10.561c-1.865,2.077-3.719,5.262-7.282,2.437
		c-2.878-2.282-2.496-4.49-0.158-7.603c10.927-14.543,25.935-23.343,44.081-26.367c11.957-1.993,24.376-0.987,35.946,3.715
		c15.205,6.178,27.071,16.011,34.794,29.767c3.104,5.526,4.635,11.834,6.88,17.786C375.069,391.884,375.069,399.315,375.069,406.745
		z"/>
	<path fill="#65476D" d="M301.845,381.247l15.625,7.428l15.625-7.428l5.068,2.261l7.88-3.89l-28.573-13.373l-28.572,13.373
		l7.886,3.89L301.845,381.247z M317.47,373.888l7.149,3.573l-7.149,3.5l-7.144-3.5L317.47,373.888z"/>
	<polygon fill="#65476D" points="294.549,386.906 286.514,383.226 286.514,407.775 294.549,404.028 	"/>
	<polygon fill="#65476D" points="340.392,386.906 340.392,404.028 348.425,407.775 348.425,383.226 	"/>
	<polygon fill="#65476D" points="330.786,410.896 330.786,392.637 322.382,396.463 322.382,414.644 317.47,417.048 312.563,414.644 
		312.563,396.463 304.157,392.637 304.157,410.896 296.86,407.43 288.897,411.243 317.47,424.617 346.043,411.243 338.08,407.43 	
		"/>
</g>
<g>
	<path fill-rule="evenodd" clip-rule="evenodd" fill="#65476D" d="M248.12,395.229c0-6.303,0.008-12.604-0.004-18.907
		c-0.006-3.307,1.085-6.273,4.455-7.041c1.56-0.354,3.994,0.722,5.275,1.931c6.827,6.461,13.437,13.147,20.072,19.804
		c3.246,3.253,3.199,6.221-0.115,9.545c-6.155,6.169-12.226,12.434-18.63,18.34c-1.729,1.592-4.63,3.007-6.824,2.793
		c-3.703-0.357-4.057-4.099-4.158-7.049C247.969,408.181,248.122,401.7,248.12,395.229z M255.698,378.277
		c0,11.277,0,22.815,0,35.303c5.428-5.493,10.065-10.479,15.044-15.099c2.414-2.244,2.171-3.505-0.097-5.593
		C265.53,388.171,260.672,383.173,255.698,378.277z"/>
</g>
</svg>
