<?xml version="1.0" encoding="utf-8"?>
<!-- Generator: Adobe Illustrator 16.0.0, SVG Export Plug-In . SVG Version: 6.00 Build 0)  -->
<!DOCTYPE svg PUBLIC "-//W3C//DTD SVG 1.1//EN" "http://www.w3.org/Graphics/SVG/1.1/DTD/svg11.dtd">
<svg version="1.1" id="Layer_1" xmlns="http://www.w3.org/2000/svg" xmlns:xlink="http://www.w3.org/1999/xlink" x="0px" y="0px"
	 width="612px" height="792px" viewBox="0 0 612 792" enable-background="new 0 0 612 792" xml:space="preserve">
<g>
	<path fill-rule="evenodd" clip-rule="evenodd" fill="#65476D" d="M295.062,463.484c-23.198-1.331-39.928-13.685-50.627-36.883
		c-3.559-7.716-5.196-16.036-5.333-24.242c-0.271-16.23,3.944-31.072,13.964-43.597c9.595-11.995,21.325-19.38,35.376-21.647
		c8.721-1.407,17.626-0.311,25.877,3.206c12.753,5.438,23,14.516,30.021,28.013c1.611,3.098,0.656,5.146-0.941,6.38
		c-1.779,1.374-3.848,1.125-5.486-1.845c-7.625-13.834-18.308-23.135-32.857-26.146c-14.79-3.061-28.295,0.238-40.012,10.964
		c-12.674,11.604-18.554,26.915-18,45.099c0.622,20.375,12.524,39.792,29.719,47.453c15.47,6.893,30.233,5.321,44.551-3.854
		c4.994-3.201,9.025-7.69,12.661-12.505c1.79-2.371,3.345-2.474,5.196-1.189c2.14,1.485,2.243,3.695,0.879,6.063
		c-2.388,4.147-5.574,7.598-8.946,10.514C321.47,457.597,308.539,464.058,295.062,463.484z"/>
</g>
<path fill="#65476D" d="M284.785,389.674l13.101,7.405l13.098-7.405l4.25,2.255l6.607-3.878l-23.956-13.333l-23.955,13.333
	l6.611,3.878L284.785,389.674z M297.885,382.336l5.993,3.563l-5.993,3.49l-5.99-3.49L297.885,382.336z"/>
<polygon fill="#65476D" points="278.669,395.315 271.932,391.647 271.932,416.125 278.669,412.391 "/>
<polygon fill="#65476D" points="317.103,395.315 317.103,412.391 323.837,416.125 323.837,391.647 "/>
<polygon fill="#65476D" points="309.049,419.238 309.049,401.031 302.002,404.847 302.002,422.976 297.885,425.371 293.77,422.976 
	293.77,404.847 286.724,401.031 286.724,419.238 280.606,415.781 273.931,419.584 297.885,432.919 321.841,419.584 315.165,415.781 
	"/>
<g>
	<path fill-rule="evenodd" clip-rule="evenodd" fill="#65476D" d="M336.789,403.646c0-6.424,0.007-12.847-0.004-19.271
		c-0.007-3.371,0.987-6.394,4.053-7.176c1.42-0.361,3.635,0.735,4.8,1.968c6.213,6.585,12.228,13.4,18.266,20.185
		c2.953,3.316,2.911,6.342-0.105,9.73c-5.601,6.288-11.124,12.673-16.952,18.693c-1.574,1.622-4.215,3.064-6.211,2.847
		c-3.369-0.364-3.691-4.179-3.783-7.185C336.651,416.849,336.791,410.242,336.789,403.646z M343.684,386.369
		c0,11.493,0,23.254,0,35.982c4.939-5.599,9.159-10.681,13.69-15.391c2.196-2.287,1.976-3.571-0.087-5.7
		C352.632,396.452,348.211,391.358,343.684,386.369z"/>
</g>
</svg>
