<?xml version="1.0" encoding="utf-8"?>
<!-- Generator: Adobe Illustrator 16.0.0, SVG Export Plug-In . SVG Version: 6.00 Build 0)  -->
<!DOCTYPE svg PUBLIC "-//W3C//DTD SVG 1.1//EN" "http://www.w3.org/Graphics/SVG/1.1/DTD/svg11.dtd">
<svg version="1.1" id="Layer_1" xmlns="http://www.w3.org/2000/svg" xmlns:xlink="http://www.w3.org/1999/xlink" x="0px" y="0px"
	 width="612px" height="792px" viewBox="0 0 612 792" enable-background="new 0 0 612 792" xml:space="preserve">
<g>
	<path fill-rule="evenodd" clip-rule="evenodd" fill="none" d="M343.424,370.049c7.626-4.24,15.345-8.319,23.037-12.443
		c0.255-0.025,0.512-0.049,0.766-0.074v-65.044h-93.891c5.695,3.435,11.37,6.901,17.086,10.299
		c10.426,6.195,20.863,12.37,31.318,18.512c3.458,2.031,6.989,3.934,10.487,5.893c7.749,4.338,15.514,8.646,23.231,13.038
		c1.409,0.803,2.621,1.953,4.111,3.085c-6.271,3.833-12.383,7.555-18.479,11.306c-1.227,0.755-2.303,1.839-3.612,2.356
		c-1.097,0.433-2.698,0.758-3.615,0.268c-3.82-2.04-7.368-4.605-11.234-6.545c-1.334-0.669-3.605-0.652-4.923,0.046
		c-3.828,2.03-7.332,4.658-11.068,6.876c-9.19,5.458-18.641,10.506-27.589,16.33c-5.389,3.508-9.732,2.385-14.435-0.742
		c-3.718-2.471-7.495-4.866-11.355-7.107c-7.686-4.461-15.45-8.79-23.175-13.185c-0.628-0.357-1.304-0.714-1.788-1.231
		c-2.512-2.688-4.805-2.196-7.63-0.184c-3.334,2.376-7.058,4.213-10.674,6.169c-0.502,0.274-1.492,0.121-2.025-0.21
		c-7.514-4.648-14.987-9.362-22.988-14.384c5.665-3.297,10.983-6.355,16.266-9.474c7.72-4.559,15.403-9.179,23.126-13.733
		c3.35-1.976,6.756-3.857,10.142-5.773c10.798-6.109,21.614-12.187,32.381-18.351c1.529-0.876,2.822-2.163,4.225-3.259h-93.891
		v64.305c0.247,0.246,0.493,0.493,0.739,0.74c6.12,3.197,12.241,6.392,18.354,9.602c0.197,0.103,0.29,0.474,0.477,0.517
		c6.162,1.385,5.668,6.002,5.627,10.791c-0.155,18.07-0.105,36.145-0.008,54.215c0.012,2.261-0.632,3.473-2.676,4.547
		c-7.301,3.835-14.477,7.906-21.701,11.888c-0.271,0.031-0.542,0.063-0.813,0.092v64.306h93.684
		c-1.013-0.576-2.032-1.141-3.084-1.641c-0.176,0.138-0.434,0.179-0.654-0.014c-0.352-0.307-0.679-0.643-1.06-0.917
		c-0.499-0.357-0.053-1.163,0.449-0.881c-11.062-6.541-22.164-13.009-33.265-19.483c-3.252-1.897-6.528-3.753-9.811-5.594
		c-7.848-4.404-15.749-8.715-23.546-13.205c-4.893-2.818-9.637-5.896-14.904-9.138c6.079-3.6,12.157-6.513,17.415-10.509
		c5.053-3.84,8.957-3.653,13.902,0.033c4.048,3.019,8.899,4.959,13.394,7.378c0.475-1.333,1.357-2.665,1.363-4
		c0.088-20.17,0.042-40.343,0.125-60.513c0.003-0.924-1.313-3.071,1.444-2.756c0.461,0.521,0.824,1.216,1.396,1.536
		c7.114,3.97,14.319,7.78,21.329,11.922c1.088,0.646,1.854,2.738,1.862,4.167c0.12,20.316,0.166,40.639,0.003,60.954
		c-0.03,3.692,0.939,5.999,4.492,7.373c0.846,0.329,2.992,1.675,5.31,3.205c0.056-0.183,0.206-0.331,0.455-0.331
		c0.26,0,0.407,0.162,0.455,0.354c0.041-0.01,0.079-0.025,0.126-0.025c0.21,0,0.346,0.107,0.417,0.251
		c0.524,0.002,0.61,0.664,0.27,0.903c2.572,1.73,5.023,3.438,5.861,4.021c3.921,2.729-0.861-2.186,2.935-4.904
		c1.965-1.406,3.929-2.948,6.129-3.859c3.025-1.253,3.742-3.248,3.725-6.323c-0.114-20.563-0.006-41.131-0.126-61.696
		c-0.016-2.491,0.862-3.604,2.956-4.735c7.545-4.079,14.952-8.415,22.937-12.952v69.145c7.196-4.347,13.75-8.42,20.454-12.231
		c0.992-0.563,2.93-0.316,4.019,0.289c5.187,2.898,10.249,6.02,15.318,9.124c2.158,1.323,4.225,2.797,6.58,4.365
		c-5.188,3.137-10.149,6.271-15.236,9.184c-10.771,6.168-21.632,12.183-32.411,18.338c-8.75,4.997-17.473,10.042-26.134,15.187
		c-3.958,2.351-9.685,4.938-13.806,7.443c0.197,0.113,0.395,0.226,0.592,0.338c0.091,0.053,0.146,0.123,0.185,0.197h94.458v-63.566
		c-0.54-0.446-1.081-0.89-1.622-1.335c-7.43-4.136-14.887-8.225-22.248-12.479c-0.689-0.397-1.108-1.823-1.111-2.773
		c-0.063-20.174-0.063-40.348,0.004-60.524C342.252,371.864,342.721,370.439,343.424,370.049z"/>
	<g>
		<path fill-rule="evenodd" clip-rule="evenodd" fill="#708090" d="M277.373,481.823c0.073-0.05,0.143-0.095,0.215-0.147
			C278.349,481.133,277.745,481.544,277.373,481.823z"/>
		<path fill-rule="evenodd" clip-rule="evenodd" fill="#708090" d="M352.999,458.437c-5.069-3.104-10.132-6.226-15.318-9.124
			c-1.089-0.605-3.026-0.853-4.019-0.289c-6.704,3.812-13.258,7.885-20.454,12.231V392.11c-7.985,4.537-15.392,8.873-22.937,12.952
			c-2.094,1.131-2.972,2.244-2.956,4.735c0.12,20.565,0.012,41.133,0.126,61.696c0.018,3.075-0.988,4.524-3.725,6.323
			c-6.941,4.561-6.934,4.449-6.344,4.007c-3.181,2.217-5.563,2.471-8.632,0.775c-0.057,0.029-0.124,0.043-0.199,0.047
			c0.224,0.167,0.448,0.33,0.674,0.505c-0.093-0.027-0.203-0.031-0.3-0.055c-0.42-0.377-0.936-0.666-1.521-0.867
			c-0.43-0.421-0.957-0.761-1.578-0.984c-1.147-0.853-2.473-1.845-4.056-3.042c-3.039-2.297-4.522-3.681-4.492-7.373
			c0.163-20.315,0.117-40.638-0.003-60.954c-0.009-1.429-0.774-3.521-1.862-4.167l-22.725-13.458
			c-0.325,1.327-0.932,2.653-0.936,3.982c-0.06,20.25-0.042,40.503-0.042,60.753v3.855c-4.495-2.419-11.3-5.681-15.348-8.699
			c-4.946-3.687-8.85-3.873-13.902-0.033c-5.257,3.996-11.336,6.909-17.415,10.509c5.268,3.242,10.011,6.319,14.904,9.138
			c7.797,4.49,15.698,8.801,23.546,13.205c3.283,1.841,6.559,3.696,9.811,5.594c11.101,6.475,22.203,12.942,33.265,19.483
			c0.019,0.009,0.036,0.011,0.053,0.022c0.023,0.018,0.043,0.037,0.065,0.053c0.218,0.133,0.429,0.28,0.642,0.423
			c1.614,0.702,3.146,1.551,4.672,2.421c4.122-2.506,9.844-5.095,13.803-7.445c8.661-5.145,17.384-10.189,26.134-15.187
			c10.779-6.155,21.64-12.17,32.411-18.338c5.087-2.913,10.048-6.047,15.236-9.184C357.224,461.233,355.157,459.76,352.999,458.437z
			"/>
	</g>
	<path fill-rule="evenodd" clip-rule="evenodd" fill="#708090" d="M273.336,292.488c5.695,3.435,11.37,6.901,17.086,10.299
		c10.426,6.195,20.863,12.37,31.318,18.512c3.458,2.031,6.989,3.934,10.487,5.893c7.749,4.338,15.514,8.646,23.231,13.038
		c1.409,0.803,2.621,1.953,4.111,3.085c-6.271,3.833-12.383,7.555-18.479,11.306c-1.227,0.755-2.303,1.839-3.612,2.356
		c-1.097,0.433-2.698,0.758-3.615,0.268c-3.82-2.04-7.368-4.605-11.234-6.545c-1.334-0.669-3.605-0.652-4.923,0.046
		c-3.828,2.03-7.332,4.658-11.068,6.876c-9.19,5.458-18.641,10.506-27.589,16.33c-5.389,3.508-9.732,2.385-14.435-0.742
		c-3.718-2.471-7.495-4.866-11.355-7.107c-7.686-4.461-15.45-8.79-23.175-13.185c-0.628-0.357-1.304-0.714-1.788-1.231
		c-2.512-2.688-4.805-2.196-7.63-0.184c-3.334,2.376-7.058,4.213-10.674,6.169c-0.502,0.274-1.492,0.121-2.025-0.21
		c-7.514-4.648-14.987-9.362-22.988-14.384c5.665-3.297,10.983-6.355,16.266-9.474c7.72-4.559,15.403-9.179,23.126-13.733
		c3.35-1.976,6.756-3.857,10.142-5.773c10.798-6.109,21.614-12.187,32.381-18.351C268.422,294.871,271.933,293.584,273.336,292.488
		C274.075,292.488,272.597,292.488,273.336,292.488z M251.229,334.849c1.208,0.95,2.152,1.848,3.236,2.521
		c5.339,3.315,10.661,6.67,16.132,9.756c0.981,0.554,2.883,0.353,3.936-0.247c4.83-2.745,9.524-5.733,14.236-8.684
		c1.56-0.978,3.029-2.1,4.797-3.337c-5.924-3.774-11.434-7.055-16.682-10.712c-3.343-2.328-6.169-1.939-9.322,0.172
		C262.345,327.813,257.014,331.134,251.229,334.849z"/>
	<path fill-rule="evenodd" clip-rule="evenodd" fill="#6BA7EF" d="M365.604,448.587c0.295-1.135,0.845-2.268,0.846-3.402
		c0.038-29.192,0.02-58.386,0.011-87.579"/>
	<path fill-rule="evenodd" clip-rule="evenodd" fill="#9CC4F4" d="M177.966,357.532c0.024,30.52,0.049,61.04,0.074,91.559"/>
	<path fill-rule="evenodd" clip-rule="evenodd" fill="#708090" d="M178.04,449.091c-0.024-30.519-0.049-61.039-0.074-91.559
		c6.12,3.197,12.241,6.392,18.354,9.602c0.197,0.103,0.29,0.474,0.477,0.517c6.162,1.385,5.668,6.002,5.627,10.791
		c-0.155,18.07-0.105,36.145-0.008,54.215c0.012,2.261-0.632,3.473-2.676,4.547C192.44,441.038,185.264,445.109,178.04,449.091z"/>
	<path fill-rule="evenodd" clip-rule="evenodd" fill="#708090" d="M366.461,357.606c0.009,29.193,0.027,58.386-0.011,87.579
		c-0.001,1.135-0.551,2.268-0.846,3.402c-7.43-4.136-14.887-8.225-22.248-12.479c-0.689-0.397-1.108-1.823-1.111-2.773
		c-0.063-20.174-0.063-40.348,0.004-60.524c0.003-0.946,0.472-2.37,1.175-2.76C351.05,365.809,358.769,361.73,366.461,357.606z"/>
	<path fill-rule="evenodd" clip-rule="evenodd" fill="#F2F7FD" d="M230.88,461.022"/>
	<path fill-rule="evenodd" clip-rule="evenodd" fill="#F2F7FD" d="M231.701,456.984"/>
	<path fill-rule="evenodd" clip-rule="evenodd" fill="#F2F7FD" d="M231.743,396.231"/>
	<path fill-rule="evenodd" clip-rule="evenodd" fill="none" d="M251.229,334.849c5.785-3.715,11.116-7.036,16.333-10.53
		c3.153-2.112,5.979-2.5,9.322-0.172c5.248,3.657,10.758,6.938,16.682,10.712c-1.768,1.237-3.237,2.359-4.797,3.337
		c-4.711,2.95-9.406,5.938-14.236,8.684c-1.053,0.6-2.955,0.801-3.936,0.247c-5.471-3.086-10.793-6.441-16.132-9.756
		C253.38,336.697,252.436,335.799,251.229,334.849z"/>
</g>
<path fill="#708090" d="M269.093,482.931c-0.352-0.289-0.758-0.526-1.215-0.702c-0.685-0.405-1.513-0.655-2.507-0.655
	c-0.033,0-0.064,0.003-0.097,0.003c-0.022-0.001-0.045-0.003-0.069-0.003c-0.05,0-0.094,0.009-0.143,0.011
	c-0.037,0-0.074,0.008-0.111,0.008c-0.079,0.006-0.157,0.01-0.233,0.02c-0.095,0.008-0.191,0.008-0.288,0.023
	c-0.022,0.004-0.046,0.002-0.069,0.006c-0.053,0.008-0.106,0.014-0.157,0.023c-0.254,0.047-0.495,0.109-0.724,0.188
	c-0.043,0.016-0.084,0.033-0.127,0.049c-0.217,0.084-0.424,0.177-0.616,0.287c-0.017,0.01-0.035,0.018-0.051,0.027
	c-0.201,0.116-0.385,0.252-0.56,0.398c-0.036,0.029-0.073,0.058-0.108,0.091c-0.166,0.146-0.321,0.304-0.462,0.473
	c-0.002,0.002-0.005,0.006-0.008,0.01c-0.24,0.26-0.458,0.54-0.639,0.849c-1.199,2.046-0.713,4.973,1.209,6.413
	c0.088,0.074,0.166,0.156,0.261,0.222c0,0.002,0.001,0.002,0.002,0.002c0.474,0.436,1.076,0.748,1.772,0.938
	c0.157,0.086,0.324,0.161,0.498,0.229c0.016,0.006,0.031,0.012,0.046,0.018c0.154,0.059,0.314,0.108,0.48,0.151
	c0.035,0.008,0.068,0.018,0.103,0.027c0.153,0.035,0.313,0.064,0.476,0.086c0.044,0.006,0.089,0.016,0.136,0.021
	c0.205,0.021,0.416,0.036,0.637,0.036c0.327,0,0.634-0.033,0.927-0.081c0.041-0.006,0.083-0.012,0.122-0.02
	c0.273-0.051,0.529-0.127,0.772-0.218c0.047-0.018,0.094-0.035,0.141-0.055c0.233-0.095,0.454-0.208,0.658-0.336
	c0.039-0.023,0.076-0.051,0.114-0.076c0.205-0.137,0.398-0.287,0.572-0.452c0.017-0.016,0.031-0.033,0.046-0.049
	c0.173-0.169,0.331-0.354,0.472-0.548c0.013-0.016,0.026-0.031,0.039-0.049c0.145-0.203,0.271-0.421,0.383-0.646
	c0.012-0.021,0.022-0.043,0.033-0.064c0.113-0.235,0.206-0.475,0.283-0.724c0.002-0.006,0.003-0.012,0.005-0.016
	C271.745,486.709,271.069,484.136,269.093,482.931z"/>
</svg>
