<?xml version="1.0" encoding="utf-8"?>
<!-- Generator: Adobe Illustrator 16.0.0, SVG Export Plug-In . SVG Version: 6.00 Build 0)  -->
<!DOCTYPE svg PUBLIC "-//W3C//DTD SVG 1.1//EN" "http://www.w3.org/Graphics/SVG/1.1/DTD/svg11.dtd">
<svg version="1.1" id="Layer_1" xmlns="http://www.w3.org/2000/svg" xmlns:xlink="http://www.w3.org/1999/xlink" x="0px" y="0px"
	 width="612px" height="792px" viewBox="0 0 612 792" enable-background="new 0 0 612 792" xml:space="preserve">
<g>
	<g>
		<path fill-rule="evenodd" clip-rule="evenodd" fill="none" d="M421.223,456.71c0,21.193,0,42.386,0,63.579
			c-31.297,0-62.594,0-93.891,0c4.489-2.828,8.91-5.773,13.48-8.464c11.832-6.965,23.701-13.865,35.609-20.698
			c7.707-4.422,15.54-8.622,23.254-13.031c4.66-2.663,9.2-5.536,14.217-8.571c-7.31-4.24-14.145-8.195-20.966-12.172
			c-0.727-0.424-1.331-1.073-2.08-1.435c-0.7-0.338-1.757-0.85-2.245-0.568c-3.346,1.922-6.547,4.096-9.866,6.066
			c-3.672,2.18-7.421,4.23-11.657,6.632c0-23.38,0-46.082,0-69.101c-7.729,4.403-15.007,8.71-22.455,12.698
			c-2.337,1.251-3.344,2.47-3.322,5.265c0.148,19.091-0.115,38.186,0.197,57.271c0.093,5.601-0.212,10.158-6.543,11.894
			c-0.613,0.168-1.032,0.971-1.594,1.412c-4.678,3.677-8.831,3.722-13.587,0.254c-1.652-1.205-3.285-2.564-5.144-3.328
			c-2.73-1.123-3.373-2.872-3.355-5.699c0.124-20.692,0.09-41.386,0.014-62.078c-0.005-1.311-0.371-3.13-1.263-3.828
			c-2.167-1.7-4.722-2.918-7.158-4.262c-5.608-3.092-11.238-6.143-17.345-9.477c0,23.087,0,45.791,0,68.964
			c-7.103-4.124-13.662-7.988-20.295-11.723c-0.948-0.534-2.554-0.99-3.335-0.553c-5.083,2.841-10.037,5.916-15.004,8.961
			c-2.509,1.537-4.959,3.171-7.75,4.963c7.676,4.586,14.927,8.981,22.24,13.271c9.009,5.283,18.044,10.524,27.117,15.698
			c7.724,4.404,15.576,8.586,23.256,13.062c4.568,2.663,8.915,5.705,13.362,8.577c-31.224,0-62.447,0-93.891,0
			c0-21.192,0-42.386,0-63.579c0.516-0.455,1.033-0.909,1.549-1.363c1.135-0.447,2.342-0.766,3.393-1.361
			c5.814-3.289,11.517-6.785,17.418-9.906c2.19-1.159,2.847-2.442,2.833-4.841c-0.105-18.109-0.148-36.221,0.004-54.33
			c0.04-4.702,0.376-9.149-5.594-10.466c-0.191-0.042-0.292-0.402-0.491-0.507c-6.12-3.221-12.247-6.428-18.374-9.638
			c-0.247-0.246-0.493-0.493-0.739-0.739c0-21.39,0-42.78,0-64.319c31.297,0,62.594,0,93.891,0c-1.403,1.097-2.696,2.384-4.226,3.26
			c-10.767,6.166-21.583,12.245-32.381,18.356c-3.386,1.916-6.792,3.798-10.142,5.774c-7.722,4.556-15.406,9.178-23.125,13.736
			c-5.283,3.12-10.601,6.179-16.266,9.476c8,5.023,15.474,9.738,22.988,14.388c0.533,0.329,1.522,0.482,2.025,0.21
			c3.616-1.958,7.34-3.795,10.673-6.171c2.825-2.014,5.118-2.504,7.631,0.184c0.483,0.517,1.159,0.874,1.788,1.231
			c7.725,4.396,15.488,8.726,23.174,13.188c3.86,2.241,7.638,4.636,11.355,7.108c4.703,3.127,9.046,4.251,14.436,0.743
			c8.947-5.825,18.397-10.875,27.588-16.333c3.735-2.219,7.24-4.849,11.069-6.878c1.316-0.698,3.588-0.716,4.923-0.046
			c3.865,1.94,7.413,4.506,11.234,6.548c0.917,0.489,2.519,0.164,3.614-0.269c1.31-0.518,2.386-1.602,3.613-2.357
			c6.096-3.75,12.209-7.475,18.479-11.308c-1.493-1.135-2.703-2.283-4.11-3.085c-7.718-4.394-15.483-8.702-23.231-13.041
			c-3.499-1.959-7.031-3.864-10.487-5.895c-10.457-6.143-20.894-12.319-31.318-18.516c-5.716-3.398-11.392-6.865-17.086-10.301
			c31.297,0,62.594,0,93.891,0c0,21.686,0,43.373,0,65.058c-0.255,0.025-0.511,0.05-0.766,0.075
			c-7.693,4.124-15.411,8.204-23.038,12.445c-0.703,0.391-1.172,1.815-1.175,2.762c-0.066,20.179-0.066,40.358-0.004,60.537
			c0.003,0.951,0.42,2.376,1.11,2.775c7.362,4.254,14.819,8.347,22.25,12.482C420.142,455.819,420.682,456.265,421.223,456.71z"/>
		<path fill-rule="evenodd" clip-rule="evenodd" fill="#3B8AEA" d="M325.114,520.289c-4.447-2.872-8.794-5.914-13.362-8.577
			c-7.68-4.476-15.532-8.657-23.256-13.062c-9.073-5.174-18.108-10.415-27.117-15.698c-7.313-4.289-14.564-8.685-22.24-13.271
			c2.791-1.792,5.241-3.426,7.75-4.963c4.967-3.045,9.921-6.12,15.004-8.961c0.782-0.438,2.387,0.019,3.335,0.553
			c6.633,3.734,13.192,7.599,20.295,11.723c0-23.173,0-45.877,0-68.964c6.107,3.334,11.737,6.385,17.345,9.477
			c2.437,1.344,4.991,2.562,7.158,4.262c0.892,0.698,1.258,2.518,1.263,3.828c0.076,20.692,0.11,41.386-0.014,62.078
			c-0.018,2.827,0.625,4.576,3.355,5.699c1.858,0.764,3.491,2.123,5.144,3.328c4.756,3.468,8.909,3.423,13.587-0.254
			c0.562-0.441,0.98-1.244,1.594-1.412c6.331-1.735,6.636-6.293,6.543-11.894c-0.313-19.086-0.049-38.181-0.197-57.271
			c-0.021-2.795,0.985-4.014,3.322-5.265c7.448-3.988,14.727-8.295,22.455-12.698c0,23.019,0,45.721,0,69.101
			c4.236-2.401,7.985-4.452,11.657-6.632c3.319-1.971,6.521-4.145,9.866-6.066c0.488-0.281,1.545,0.23,2.245,0.568
			c0.749,0.361,1.354,1.011,2.08,1.435c6.821,3.977,13.656,7.932,20.966,12.172c-5.017,3.035-9.557,5.908-14.217,8.571
			c-7.714,4.409-15.547,8.609-23.254,13.031c-11.908,6.833-23.777,13.733-35.609,20.698c-4.57,2.69-8.991,5.636-13.48,8.464
			C326.593,520.289,325.854,520.289,325.114,520.289z"/>
		<path fill-rule="evenodd" clip-rule="evenodd" fill="#3B8AEA" d="M327.332,299.239c5.694,3.436,11.37,6.903,17.086,10.301
			c10.425,6.197,20.861,12.373,31.318,18.516c3.456,2.031,6.988,3.936,10.487,5.895c7.748,4.339,15.514,8.647,23.231,13.041
			c1.407,0.802,2.617,1.951,4.11,3.085c-6.27,3.833-12.383,7.557-18.479,11.308c-1.228,0.756-2.304,1.84-3.613,2.357
			c-1.096,0.432-2.697,0.758-3.614,0.269c-3.821-2.042-7.369-4.608-11.234-6.548c-1.335-0.67-3.606-0.652-4.923,0.046
			c-3.829,2.029-7.334,4.66-11.069,6.878c-9.19,5.458-18.641,10.509-27.588,16.333c-5.39,3.509-9.732,2.385-14.436-0.743
			c-3.718-2.472-7.495-4.868-11.355-7.108c-7.686-4.463-15.449-8.792-23.174-13.188c-0.629-0.358-1.305-0.715-1.788-1.231
			c-2.513-2.688-4.806-2.197-7.631-0.184c-3.333,2.376-7.058,4.213-10.673,6.171c-0.502,0.272-1.492,0.119-2.025-0.21
			c-7.514-4.65-14.988-9.365-22.988-14.388c5.665-3.297,10.983-6.356,16.266-9.476c7.72-4.558,15.403-9.18,23.125-13.736
			c3.35-1.976,6.756-3.858,10.142-5.774c10.798-6.111,21.614-12.19,32.381-18.356c1.529-0.876,2.822-2.163,4.226-3.26
			C325.854,299.239,326.593,299.239,327.332,299.239z M347.415,341.499c-5.923-3.748-11.592-7.212-17.122-10.885
			c-2.813-1.867-5.198-1.807-8.007,0.09c-5.487,3.705-11.164,7.131-16.966,10.8c0.896,0.834,1.563,1.684,2.424,2.216
			c5.657,3.504,11.319,7.005,17.086,10.324c0.825,0.475,2.44,0.347,3.313-0.156c5.349-3.078,10.606-6.313,15.848-9.572
			C345.16,343.588,346.141,342.56,347.415,341.499z"/>
		<path fill-rule="evenodd" clip-rule="evenodd" fill="#9CC4F4" d="M231.223,363.558c0.247,0.246,0.493,0.493,0.739,0.739
			c0,28.971-0.011,57.941,0.034,86.911c0.002,1.379,0.506,2.759,0.775,4.139c-0.516,0.454-1.033,0.908-1.549,1.363
			C231.223,425.659,231.223,394.609,231.223,363.558z"/>
		<path fill-rule="evenodd" clip-rule="evenodd" fill="#6BA7EF" d="M420.457,364.373c0.255-0.025,0.511-0.05,0.766-0.075
			c0,30.804,0,61.608,0,92.413c-0.541-0.445-1.081-0.891-1.622-1.336c0.294-1.134,0.844-2.268,0.846-3.401
			C420.484,422.772,420.466,393.572,420.457,364.373z"/>
		<path fill-rule="evenodd" clip-rule="evenodd" fill="#3B8AEA" d="M232.772,455.347c-0.27-1.38-0.773-2.76-0.775-4.139
			c-0.045-28.97-0.034-57.94-0.034-86.911c6.126,3.21,12.253,6.417,18.374,9.638c0.199,0.105,0.3,0.465,0.491,0.507
			c5.97,1.316,5.633,5.764,5.594,10.466c-0.152,18.109-0.109,36.221-0.004,54.33c0.014,2.398-0.644,3.682-2.833,4.841
			c-5.902,3.121-11.604,6.617-17.418,9.906C235.114,454.581,233.907,454.899,232.772,455.347z"/>
		<path fill-rule="evenodd" clip-rule="evenodd" fill="#3B8AEA" d="M420.457,364.373c0.009,29.199,0.027,58.4-0.011,87.6
			c-0.002,1.134-0.552,2.268-0.846,3.401c-7.431-4.136-14.888-8.229-22.25-12.482c-0.69-0.399-1.107-1.824-1.11-2.775
			c-0.063-20.179-0.063-40.357,0.004-60.537c0.003-0.947,0.472-2.371,1.175-2.762C405.046,372.576,412.764,368.497,420.457,364.373z
			"/>
		<path fill-rule="evenodd" clip-rule="evenodd" fill="none" d="M347.415,341.499c-1.274,1.061-2.255,2.089-3.424,2.816
			c-5.241,3.259-10.499,6.495-15.848,9.572c-0.873,0.503-2.488,0.631-3.313,0.156c-5.767-3.319-11.429-6.82-17.086-10.324
			c-0.861-0.533-1.527-1.382-2.424-2.216c5.802-3.669,11.479-7.095,16.966-10.8c2.809-1.897,5.194-1.957,8.007-0.09
			C335.823,334.286,341.492,337.75,347.415,341.499z"/>
	</g>
</g>
</svg>
