<?xml version="1.0" encoding="utf-8"?>
<!-- Generator: Adobe Illustrator 16.0.0, SVG Export Plug-In . SVG Version: 6.00 Build 0)  -->
<!DOCTYPE svg PUBLIC "-//W3C//DTD SVG 1.1//EN" "http://www.w3.org/Graphics/SVG/1.1/DTD/svg11.dtd">
<svg version="1.1" id="Layer_1" xmlns="http://www.w3.org/2000/svg" xmlns:xlink="http://www.w3.org/1999/xlink" x="0px" y="0px"
	 width="612px" height="792px" viewBox="0 0 612 792" enable-background="new 0 0 612 792" xml:space="preserve">
<g>
	<path fill-rule="evenodd" clip-rule="evenodd" fill="#3B8BEB" d="M283.588,240.773c32.739,0.072,60.629,13.103,83.57,38.832
		c2.832,3.175,4.312,2.685,6.666,0.109c8.397-9.184,16.815-18.348,25.313-27.419c6.099-6.51,14.107-6.405,20.038,0.07
		c5.472,5.973,5.565,15.111-0.235,21.726c-7.961,9.079-16.241,17.813-24.342,26.742c-31.48,34.694-62.937,69.412-94.427,104.095
		c-1.584,1.743-3.274,3.446-5.141,4.783c-6.476,4.643-13.473,3.913-18.953-2.104c-15.169-16.658-30.288-33.374-45.354-50.148
		c-5.878-6.545-5.787-15.609-0.017-22.187c5.272-6.01,13.781-6.112,19.648,0.226c10.999,11.884,21.869,23.915,32.611,36.082
		c2.493,2.822,3.9,3.16,6.6,0.161c18.79-20.862,37.713-41.578,56.732-62.185c2.576-2.791,2.795-4.466,0.174-7.367
		c-25.04-27.708-54.912-37.249-88.561-25.438c-33.468,11.747-54.217,38.009-59.814,76.633
		c-8.838,60.981,35.943,114.336,91.634,110.309c43.695-3.162,78.88-43.824,80.569-93.119c0.044-1.242-0.046-2.492,0.037-3.73
		c0.585-8.771,6.751-15.194,14.393-15.033c7.813,0.165,13.688,6.568,13.685,15.589c-0.015,42.197-15.115,76.8-45.501,101.881
		c-35.212,29.062-74.461,34.328-114.788,15.234c-40.168-19.019-63.488-54.042-68.93-101.983
		C160.581,306.641,214.165,240.851,283.588,240.773z"/>
</g>
</svg>
