<?xml version="1.0" encoding="utf-8"?>
<!-- Generator: Adobe Illustrator 16.0.0, SVG Export Plug-In . SVG Version: 6.00 Build 0)  -->
<!DOCTYPE svg PUBLIC "-//W3C//DTD SVG 1.1//EN" "http://www.w3.org/Graphics/SVG/1.1/DTD/svg11.dtd">
<svg version="1.1" id="Layer_1" xmlns="http://www.w3.org/2000/svg" xmlns:xlink="http://www.w3.org/1999/xlink" x="0px" y="0px"
	 width="612px" height="792px" viewBox="0 0 612 792" enable-background="new 0 0 612 792" xml:space="preserve">
<g>
	<path fill-rule="evenodd" clip-rule="evenodd" fill="#3B8BEB" d="M233.904,496.809c-2.757,0.167-4.569-2.096-6.335-4.586
		c-22.499-31.716-45.021-63.399-67.504-95.14c-3.577-5.048-3.862-10.187-1.032-14.139c2.946-4.115,6.802-3.636,10.61,1.716
		c20.303,28.536,40.622,57.052,60.757,85.818c2.726,3.896,3.996,4.03,6.82,0.111c37.884-52.572,75.917-104.941,113.907-157.366
		c16.121-22.247,32.223-44.524,48.358-66.751c4.068-5.605,8.174-6.217,10.94-1.462c3.079,5.29,1.598,9.921-1.513,14.171
		c-10.55,14.41-21.097,28.824-31.586,43.316c-45.343,62.639-90.663,125.305-135.993,187.959
		C239.219,493.38,237.237,496.622,233.904,496.809z"/>
</g>
</svg>
