<?xml version="1.0" encoding="utf-8"?>
<!-- Generator: Adobe Illustrator 16.0.0, SVG Export Plug-In . SVG Version: 6.00 Build 0)  -->
<!DOCTYPE svg PUBLIC "-//W3C//DTD SVG 1.1//EN" "http://www.w3.org/Graphics/SVG/1.1/DTD/svg11.dtd">
<svg version="1.1" id="Layer_1" xmlns="http://www.w3.org/2000/svg" xmlns:xlink="http://www.w3.org/1999/xlink" x="0px" y="0px"
	 width="612px" height="792px" viewBox="0 0 612 792" enable-background="new 0 0 612 792" xml:space="preserve">
<g>
	<path fill-rule="evenodd" clip-rule="evenodd" fill="#3B8BEB" d="M232.951,213.721c6.802,1.689,13.729,2.991,20.386,5.132
		c37.482,12.059,63.688,36.326,78.314,72.981c1.581,3.963,1.371,7.571-2.021,10.357c-2.989,2.455-6.345,2.532-9.679,0.394
		c-1.951-1.25-2.692-3.226-3.537-5.242c-15.244-36.442-42.178-58.698-81.04-66.053c-54.931-10.397-111.29,28.932-120.9,84.134
		c-10.415,59.822,27.999,114.207,87.66,124.103c47.15,7.821,95.041-19.403,113.493-64.519c0.375-0.919,0.71-1.856,1.087-2.774
		c2.169-5.271,6.456-7.542,10.948-5.807c4.448,1.717,6.282,6.377,4.133,11.691c-16.894,41.748-47.383,67.322-91.466,76.698
		c-2.474,0.526-5.217,0.132-7.378,1.904c-10.292,0-20.583,0-30.875,0c-18.375-1.53-35.079-8.06-50.348-17.972
		c-28.22-18.318-46.11-44.109-53.811-76.901c-0.825-3.513-0.372-7.203-1.412-10.692c0-10.624,0-21.246,0-31.869
		c2.19-23.103,11.406-43.38,25.777-61.226c17.943-22.28,41.181-36.494,69.104-42.919c3.833-0.882,7.868-0.297,11.685-1.421
		C213.032,213.721,222.991,213.721,232.951,213.721z"/>
	<path fill-rule="evenodd" clip-rule="evenodd" fill="#3B8BEB" d="M342.506,339.204c-3.144,3.354-6.989,4.093-11.533,4.075
		c-41.138-0.156-82.276-0.091-123.414-0.091c-1.802,0-3.603,0-6.771,0c6.243,6.196,11.661,11.639,17.157,17.001
		c2.431,2.371,3.734,5.069,2.995,8.476c-1.389,6.391-8.95,8.412-14.061,3.534c-6.838-6.525-13.413-13.327-20.099-20.011
		c-3.519-3.519-7.114-6.965-10.53-10.582c-3.897-4.125-3.963-8.73,0.021-12.779c10.121-10.286,20.319-20.498,30.614-30.609
		c3.846-3.776,8.584-3.728,11.987-0.335c3.202,3.192,3.072,8.217-0.621,11.969c-5.447,5.538-11.076,10.898-17.719,17.402
		c3.108,0,4.818,0,6.529,0c41.304,0,82.607,0.064,123.912-0.091c4.544-0.018,8.388,0.721,11.533,4.075
		C342.506,333.893,342.506,336.548,342.506,339.204z"/>
</g>
</svg>
