<?xml version="1.0" encoding="utf-8"?>
<!-- Generator: Adobe Illustrator 16.0.0, SVG Export Plug-In . SVG Version: 6.00 Build 0)  -->
<!DOCTYPE svg PUBLIC "-//W3C//DTD SVG 1.1//EN" "http://www.w3.org/Graphics/SVG/1.1/DTD/svg11.dtd">
<svg version="1.1" id="Layer_1" xmlns="http://www.w3.org/2000/svg" xmlns:xlink="http://www.w3.org/1999/xlink" x="0px" y="0px"
	 width="612px" height="792px" viewBox="0 0 612 792" enable-background="new 0 0 612 792" xml:space="preserve">
<g>
	<path fill-rule="evenodd" clip-rule="evenodd" fill="#3B8BEB" d="M351.268,417.184c-4.743-6.912-9.669-13.628-14.168-20.802
		c-3.06-4.879-5.088-4.148-8.162,0.118c-7.183,9.973-14.842,19.358-22.133,29.201c-2.416,3.261-3.86,4.239-6.835,0.412
		c-11.181-14.378-11.316-14.199-0.235-28.663c15.403-20.106,30.804-40.215,47.287-61.735c2.25,27.504,4.364,53.361,6.479,79.218
		C352.756,415.686,352.012,416.435,351.268,417.184z"/>
	<path fill-rule="evenodd" clip-rule="evenodd" fill="#0039FF" d="M265.031,430.715c-2.123-26.118-4.233-52.084-6.531-80.359
		c6.305,8.075,11.746,14.422,16.59,21.47c3.189,4.639,5.085,4.163,8.172-0.131c7.176-9.981,14.898-19.29,22.106-29.232
		c2.852-3.931,4.669-3.964,7.234,0.188c3.061,4.951,9.404,8.503,9.384,13.996c-0.021,5.498-6.031,9.432-9.473,13.964
		c-14.044,18.501-28.176,36.887-42.33,55.248C268.808,427.643,267.824,430.262,265.031,430.715z"/>
</g>
</svg>
