<?xml version="1.0" encoding="utf-8"?>
<!-- Generator: Adobe Illustrator 16.0.0, SVG Export Plug-In . SVG Version: 6.00 Build 0)  -->
<!DOCTYPE svg PUBLIC "-//W3C//DTD SVG 1.1//EN" "http://www.w3.org/Graphics/SVG/1.1/DTD/svg11.dtd">
<svg version="1.1" id="Layer_1" xmlns="http://www.w3.org/2000/svg" xmlns:xlink="http://www.w3.org/1999/xlink" x="0px" y="0px"
	 width="595.28px" height="841.89px" viewBox="0 0 595.28 841.89" enable-background="new 0 0 595.28 841.89" xml:space="preserve">
<g>
	<path fill-rule="evenodd" clip-rule="evenodd" fill="#3B8AEA" d="M179.543,435.361c0-53.326,0-106.653,0-159.979
		c3.288-12.998,10.657-22.947,21.921-30.259c9.497-6.166,19.829-10.121,30.75-12.682c6.404-1.502,12.878-2.712,19.32-4.053
		c7.665,0,15.331,0,22.997,0c1.179,0.353,2.338,0.908,3.54,1.025c13.839,1.35,27.282,4.218,39.929,10.215
		c21.304,10.102,34.393,25.243,31.67,50.533c-0.754,7.014,0.528,8.281,7.545,8.664c13.329,0.726,25.402,4.891,36.419,12.301
		c43.627,29.342,54.341,92.838,23.209,137.494c-22.067,31.655-60.283,43.548-93.541,28.753c-5.64-2.51-10.605-2.524-16.292-0.655
		c-25.271,8.305-50.922,9.866-76.671,2.572C206.695,472.591,185.291,462.927,179.543,435.361z M422.984,396.301
		c0.39-20.152-3.611-36.577-13.149-51.477c-24.596-38.417-73.698-44.197-104.981-12.388c-31.688,32.22-30.522,89.041,2.457,119.853
		c23.652,22.1,57.174,24.486,83.381,5.483C412.355,442.064,421.705,419.854,422.984,396.301z M264.621,317.565
		c19.631,0.184,38.395-3.267,55.594-13.281c6.94-4.041,12.367-9.482,15.788-16.842c3.151-6.779,3.198-13.692-1.734-19.229
		c-4.661-5.232-9.983-10.532-16.104-13.698c-33.505-17.333-67.803-16.606-102.258-2.725c-7.84,3.159-14.499,8.109-19.69,14.885
		c-6.068,7.922-6.421,15.571-1.019,24.01c4.518,7.056,10.779,12.143,18.217,15.869C229.535,314.634,246.699,317.841,264.621,317.565
		z M302.609,465.04c-4.039-4.465-7.873-7.342-9.869-11.176c-5.005-9.613-12.642-9.797-22.139-9.12
		c-27.162,1.937-52.576-3.832-74.935-20.277c-1.083-0.795-2.316-1.386-3.671-2.184c-2.453,13.669,1.566,24.046,12.602,31.382
		c3.86,2.566,7.855,5.041,12.064,6.95c21.888,9.926,44.813,11.875,68.341,8.199C290.621,467.936,296.143,466.444,302.609,465.04z
		 M192.175,307.432c-2.521,15.88,1.188,24.661,13.373,32.686c20.622,13.581,43.525,17.427,67.699,15.502
		c1.46-0.116,3.507-0.928,4.142-2.056c4.521-8.04,8.747-16.247,13.221-24.69C255.607,333.215,221.849,331.042,192.175,307.432z
		 M191.799,384.822c-2.492,13.403,2.1,24.021,13.854,31.679c20.866,13.595,44.065,16.872,68.314,15.7
		c3.478-0.168,4.279-1.743,3.206-4.899c-1.493-4.394-3.024-8.796-4.127-13.298c-1.734-7.082-1.589-7.16-8.786-7.151
		c-15.42,0.02-30.683-1.53-44.936-7.617C209.94,395.229,201.168,389.791,191.799,384.822z M192.289,345.415
		c-2.696,12.472,0.198,21.822,9.035,29.279c3.162,2.668,6.543,5.208,10.166,7.178c16.938,9.205,35.345,12.245,54.38,12.522
		c3.53,0.052,4.553-1.663,4.716-4.889c0.259-5.142,0.55-10.326,1.453-15.38c0.762-4.265-0.834-5.342-4.68-5.305
		C240.039,369.082,214.454,363.584,192.289,345.415z"/>
	<path fill-rule="evenodd" clip-rule="evenodd" fill="none" d="M179.543,435.361c5.748,27.566,27.152,37.23,50.796,43.929
		c25.749,7.294,51.399,5.732,76.671-2.572c5.687-1.869,10.652-1.854,16.292,0.655c33.258,14.795,71.474,2.902,93.541-28.753
		c31.132-44.656,20.418-108.152-23.209-137.494c-11.017-7.41-23.09-11.575-36.419-12.301c-7.017-0.383-8.299-1.65-7.545-8.664
		c2.723-25.29-10.366-40.431-31.67-50.533c-12.646-5.998-26.09-8.865-39.929-10.215c-1.202-0.117-2.361-0.673-3.54-1.025
		c53.993,0,107.986,0,161.979,0c0,85.656,0,171.312,0,256.968c-85.656,0-171.312,0-256.968,0
		C179.543,468.69,179.543,452.026,179.543,435.361z"/>
	<path fill-rule="evenodd" clip-rule="evenodd" fill="none" d="M251.534,228.387c-6.442,1.341-12.916,2.551-19.32,4.053
		c-10.921,2.561-21.253,6.516-30.75,12.682c-11.264,7.312-18.633,17.262-21.921,30.259c0-15.6,0-31.198,0-46.994
		C203.539,228.387,227.537,228.387,251.534,228.387z"/>
	<path fill-rule="evenodd" clip-rule="evenodd" fill="#3B8AEA" d="M327.173,400.514c3.268-9.045,6.249-17.303,9.233-25.56
		c0.563-1.561,1.084-3.139,1.715-4.673c1.811-4.407,5.076-6.551,9.846-5.776c4.924,0.799,7.013,4.174,7.035,8.868
		c0.066,13.982,0.101,27.965-0.017,41.946c-0.041,4.878-2.439,7.362-6.409,7.159c-4.448-0.228-5.951-3.177-6.021-7.088
		c-0.102-5.579-0.026-11.16-1.165-16.989c-2,5.509-3.806,11.1-6.085,16.491c-1.055,2.496-2.574,5.257-4.693,6.741
		c-4.001,2.803-8.807,0.418-10.978-5.025c-2.261-5.669-4.316-11.421-6.461-17.136c-0.493,0.065-0.986,0.132-1.479,0.197
		c0,3.486,0.006,6.971-0.002,10.456c-0.005,1.997,0.04,3.998-0.067,5.99c-0.209,3.878-2.093,6.339-6.177,6.34
		c-4.144,0-6.017-2.587-6.037-6.423c-0.078-14.636-0.047-29.272-0.017-43.909c0.01-4.283,2.264-6.947,6.422-7.625
		c4.548-0.743,8.284,0.545,10.026,5.302c3.2,8.735,6.37,17.482,9.563,26.22C325.852,397.244,326.357,398.447,327.173,400.514z"/>
	<path fill-rule="evenodd" clip-rule="evenodd" fill="#3B8AEA" d="M372.678,389.735c0,9.319,0.069,17.288-0.029,25.256
		c-0.047,3.911-0.869,7.487-5.93,7.506c-4.145,0.016-6.216-2.497-6.234-7.874c-0.047-13.656,0.037-27.312,0.026-40.968
		c-0.004-4.227,1.352-7.579,5.681-8.924c4.474-1.39,7.385,1.076,9.562,4.51c4.631,7.308,9.096,14.72,13.651,22.075
		c0.849,1.37,1.8,2.675,3.944,3.815c0-4.708-0.016-9.417,0.005-14.126c0.016-3.329-0.093-6.672,0.168-9.984
		c0.29-3.668,1.987-6.612,6.102-6.534c4.094,0.078,5.563,3.102,5.961,6.739c0.127,1.154,0.091,2.328,0.095,3.494
		c0.04,12.656,0.063,25.313,0.115,37.969c0.018,4.273-0.807,8.147-5.515,9.519c-4.785,1.394-7.804-1.002-10.197-5.029
		c-4.592-7.723-9.427-15.302-14.187-22.924C375.144,393.049,374.251,391.933,372.678,389.735z"/>
</g>
</svg>
