<?xml version="1.0" encoding="utf-8"?>
<!-- Generator: Adobe Illustrator 16.0.0, SVG Export Plug-In . SVG Version: 6.00 Build 0)  -->
<!DOCTYPE svg PUBLIC "-//W3C//DTD SVG 1.1//EN" "http://www.w3.org/Graphics/SVG/1.1/DTD/svg11.dtd">
<svg version="1.1" id="Layer_1" xmlns="http://www.w3.org/2000/svg" xmlns:xlink="http://www.w3.org/1999/xlink" x="0px" y="0px"
	 width="612px" height="792px" viewBox="0 0 612 792" enable-background="new 0 0 612 792" xml:space="preserve">
<g>
	<path fill-rule="evenodd" clip-rule="evenodd" fill="#FF1572" d="M174.86,487.867c-9.86-2.811-19.955-4.851-29.425-8.908
		c-32.191-13.796-54.786-36.436-67.924-67.818c-2.654-6.34-0.421-11.405,5.319-12.73c4.485-1.034,8.169,1.331,10.442,6.761
		c10.934,26.121,29.463,45.486,55.974,57.517c67.782,30.763,147.278-12.071,155.606-83.75c6.778-58.34-36.38-110.193-97.208-116.791
		c-48.734-5.287-95.523,21.651-113.813,65.527c-0.449,1.078-0.817,2.191-1.313,3.248c-2.121,4.526-6.589,6.507-10.986,4.906
		c-4.49-1.634-6.431-6.086-4.543-11.169c5.656-15.223,14.301-28.758,25.833-40.483c23.762-24.16,53.009-37.101,87.563-38.918
		c3.157-0.752,6.367-0.154,9.54-0.346c31.632-0.438,58.387,10.988,81.736,30.883c19.749,16.826,32.26,37.724,38.623,62.212
		c1.127,4.342,0.8,8.847,1.986,13.158c0,10.976,0,21.952,0,32.928c-2.781,22.702-11.914,42.854-26.924,60.465
		c-17.976,21.093-40.714,35.233-68.303,41.957c-3.145,0.766-6.506,0.274-9.621,1.351
		C203.235,487.867,189.047,487.867,174.86,487.867z"/>
	<path fill-rule="evenodd" clip-rule="evenodd" fill="#FF1572" d="M76.27,362.78c3.454-3.757,7.864-4.679,12.931-4.667
		c42.358,0.098,84.717,0.055,127.075,0.055c1.891,0,3.781,0,5.623,0c0.681-1.984-0.962-2.542-1.808-3.372
		c-5.075-4.993-10.334-9.813-15.34-14.864c-3.34-3.371-3.192-8.061-0.021-11.215c3.125-3.108,8.283-3.532,11.691-0.328
		c11.49,10.807,22.88,21.72,34.066,32.816c3.287,3.263,3.26,7.616-0.006,10.869c-10.922,10.879-22.045,21.578-33.295,32.144
		c-3.505,3.292-8.51,2.957-11.752-0.055c-3.357-3.12-3.566-8.027,0.053-11.608c5.756-5.695,11.824-11.095,17.287-17.801
		c-1.792,0-3.584,0-5.377,0c-43.395,0-86.791-0.056-130.186,0.08c-4.77,0.016-8.42-1.125-10.94-5.069
		C76.27,367.436,76.27,365.107,76.27,362.78z"/>
</g>
</svg>
