<?xml version="1.0" encoding="utf-8"?>
<!-- Generator: Adobe Illustrator 16.0.0, SVG Export Plug-In . SVG Version: 6.00 Build 0)  -->
<!DOCTYPE svg PUBLIC "-//W3C//DTD SVG 1.1//EN" "http://www.w3.org/Graphics/SVG/1.1/DTD/svg11.dtd">
<svg version="1.1" id="Layer_1" xmlns="http://www.w3.org/2000/svg" xmlns:xlink="http://www.w3.org/1999/xlink" x="0px" y="0px"
	 width="595.28px" height="841.89px" viewBox="0 0 595.28 841.89" enable-background="new 0 0 595.28 841.89" xml:space="preserve">
<g>
	<path fill-rule="evenodd" clip-rule="evenodd" fill="#3B8AEA" d="M238.76,244.91c2,0,3.999,0,5.999,0
		c6.33,0.659,12.663,1.287,18.989,1.984c18.171,2.006,35.163,7.318,50.017,18.317c10.281,7.612,16.534,17.711,17.56,30.627
		c0.328,4.126-0.065,8.306-0.083,12.462c-0.025,6.114,1.009,7.313,7.176,7.572c15.881,0.664,29.8,6.361,42.136,16.183
		c42.991,34.23,48.074,102.254,10.679,142.72c-22.745,24.613-55.806,32.797-84.554,20.367c-6.771-2.928-12.731-2.965-19.644-0.811
		c-31.486,9.807-62.655,9.137-93.113-4.299c-16.674-7.354-29.308-18.338-32.481-37.467c-0.043-0.258-0.439-0.457-0.67-0.682
		c0-6.666,0-13.332,0-19.998c0.333-1.738,0.954-3.477,0.957-5.215c0.056-37.858,0.056-75.717,0-113.576
		c-0.003-1.732-0.624-3.462-0.957-5.193c0-4.667,0-9.332,0-13.999c0.379-0.86,0.938-1.687,1.111-2.587
		c1.937-10.099,7.341-18.013,15.11-24.536c12.757-10.71,27.907-15.789,43.932-18.815C226.849,246.846,232.813,245.923,238.76,244.91
		z M263.49,403.264c0.007,27.091,7.007,46.315,21.893,62.534c24.733,26.947,65.153,29.059,92.447,4.842
		c34.275-30.411,35.909-89.125,3.388-121.658c-25.817-25.826-65.983-26.833-91.87-2.274
		C271.67,363.48,263.686,384.32,263.49,403.264z M247.076,258.723c-17.264-0.332-33.649,3.694-49.513,10.149
		c-8.508,3.461-15.605,8.822-20.887,16.44c-4.774,6.886-4.83,13.911-0.687,21.095c5.035,8.731,12.727,14.344,21.655,18.503
		c12.687,5.911,26.1,8.912,40.015,9.606c21.417,1.069,42.197-1.383,61.497-11.659c8.007-4.263,14.503-9.947,18.424-18.306
		c2.903-6.189,2.877-12.184-0.746-18.095c-4.029-6.576-9.601-11.409-16.457-14.84C283.603,263.221,265.979,258.344,247.076,258.723z
		 M283.577,482.275c0.229-0.598,0.459-1.195,0.688-1.793c-3.087-2.74-6.835-5.016-9.145-8.303c-9.615-13.678-7.427-10.484-24.091-10
		c-24.95,0.727-48.677-3.585-69.815-17.857c-2.417-1.633-4.73-3.421-7.188-5.207c-3.548,10.778,0.265,22.678,9.961,29.967
		c4.611,3.465,9.684,6.512,14.933,8.896c20.89,9.488,42.887,11.4,65.392,8.359C270.798,485.46,277.159,483.654,283.577,482.275z
		 M174.174,324.838c-4.013,12.666,0.355,23.652,12.507,31.973c20.8,14.241,44.177,17.512,68.626,15.857
		c1.518-0.103,3.392-1.854,4.264-3.331c2.697-4.57,4.89-9.435,7.476-14.075c1.707-3.064,3.756-5.938,6.088-9.579
		C237.119,350.65,203.702,347.907,174.174,324.838z M174.087,400.817c-3.864,11.943,0.797,24.144,11.826,31.745
		c21.344,14.709,45.353,18.087,70.526,16.486c3.329-0.212,3.188-1.922,2.397-4.42c-1.652-5.217-3.375-10.441-4.525-15.779
		c-0.797-3.7-2.61-4.873-6.196-4.844C221.134,424.24,195.896,418.688,174.087,400.817z M173.651,362.257
		c-0.382,2.561-0.754,4.158-0.839,5.771c-0.526,9.987,2.925,18.31,10.854,24.493c19.085,14.882,41.473,18.562,64.828,18.875
		c3.422,0.045,3.505-2.4,3.73-4.738c0.46-4.786,0.692-9.6,1.325-14.36c0.662-4.982-0.282-6.165-5.385-6.43
		c-7.631-0.396-15.297-0.605-22.871-1.528C206.406,382.037,189.361,375.054,173.651,362.257z"/>
	<path fill-rule="evenodd" clip-rule="evenodd" fill="none" d="M714.295,411.364c0.23,0.226,0.627,0.424,0.67,0.682
		c3.174,19.129,15.808,30.114,32.481,37.467c30.458,13.436,61.627,14.105,93.113,4.299c6.912-2.154,12.872-2.117,19.644,0.811
		c28.748,12.43,61.809,4.246,84.554-20.367c37.396-40.466,32.313-108.49-10.679-142.72c-12.336-9.822-26.255-15.52-42.136-16.183
		c-6.167-0.259-7.201-1.458-7.176-7.572c0.018-4.156,0.411-8.335,0.083-12.462c-1.025-12.917-7.278-23.015-17.56-30.627
		c-14.854-10.999-31.846-16.311-50.017-18.317c-6.326-0.697-12.659-1.325-18.989-1.984c57.659,0,115.319,0,172.979,0
		c0,85.656,0,171.312,0,256.968c-85.656,0-171.312,0-256.968,0C714.295,444.693,714.295,428.029,714.295,411.364z"/>
	<path fill-rule="evenodd" clip-rule="evenodd" fill="#3B8BEA" d="M333.683,440.707c-4.771-1.322-9.657-2.338-14.283-4.053
		c-4.524-1.677-5.961-5.459-4.288-9.703c1.788-4.535,5.004-4.254,9.033-3.08c3.919,1.143,8.1,1.728,12.18,1.812
		c1.68,0.034,3.398-1.88,5.099-2.909c-1.349-1.221-2.503-2.906-4.085-3.573c-3.973-1.674-8.262-2.609-12.202-4.345
		c-7.93-3.492-11.234-9.683-10.116-18.082c1.044-7.831,6.624-14.265,14.532-14.912c5.816-0.476,11.899,0.248,17.637,1.488
		c4.882,1.055,6.284,4.834,4.8,9.238c-1.555,4.611-4.66,4.567-8.788,3.715c-3.949-0.816-8.144-0.762-12.2-0.542
		c-1.104,0.061-2.655,1.978-2.94,3.277c-0.172,0.781,1.52,2.449,2.7,2.954c2.893,1.236,5.978,2.021,8.981,3.001
		c11.342,3.704,16.254,10.414,14.61,19.95C352.704,434.51,345.188,440.038,333.683,440.707z"/>
</g>
</svg>
